<svg width="512" height="512" viewBox="0 0 135.467 135.467" xmlns:xlink="http://www.w3.org/1999/xlink"
   xmlns="http://www.w3.org/2000/svg">
   <defs>
      <linearGradient id="prefix__c">
         <stop offset=".462" stop-color="#ffea41" />
         <stop offset="1" stop-color="#ff9604" />
      </linearGradient>
      <linearGradient id="prefix__d">
         <stop offset="0" stop-color="#fff" />
         <stop offset="1" stop-color="#d2c3ff" />
      </linearGradient>
      <linearGradient id="prefix__b">
         <stop offset=".462" stop-color="#ffcb04" />
         <stop offset="1" stop-color="#ff9604" />
      </linearGradient>
      <linearGradient id="prefix__a">
         <stop offset="0" stop-color="#f8f8f8" />
         <stop offset="1" stop-color="#999da8" />
      </linearGradient>
      <radialGradient xlink:href="#prefix__c" id="prefix__e" cx="29.561" cy="12.081" fx="29.561" fy="12.081" r="48.676"
         gradientUnits="userSpaceOnUse" gradientTransform="matrix(.06485 .69167 -1.19996 .1125 65.097 17.23)" />
      <radialGradient xlink:href="#prefix__d" id="prefix__f" cx="28.243" cy="41.644" fx="28.243" fy="41.644" r="48.675"
         gradientTransform="matrix(.09727 .63393 -1.3046 .20017 101.449 43.015)" gradientUnits="userSpaceOnUse" />
   </defs>
   <path fill="url(#prefix__e)" d="M29.593 62.539A42.125 42.125 0 0171.72 20.414a42.125 42.125 0 0142.125 42.125H71.72z"
      transform="rotate(15 50 50)" />
   <path
      d="M113.844 62.539A42.125 42.125 75.149 0192.781 99.02a42.125 42.125 75.149 01-42.125 0 42.125 42.125 75.149 01-21.063-36.482H71.72z"
      fill="url(#prefix__f)" transform="rotate(15 50 50)" />
   <path style="-inkscape-stroke:none"
      d="M27.46 55.386c-.301.974-.53 1.86-.743 2.74l81.347 21.772c.266-.896.52-1.805.732-2.75z" color="#000"
      fill="#2b5d71" />
   <path d="M63.228 55.033l21.305-14.796L95.55 63.694l-10.08-2.701L81.207 76.9l-12.167-3.26 4.262-15.907z" color="#000"
      fill="#fc3730" />
   <path d="M72.238 80.433L50.934 95.229 39.915 71.772l10.081 2.701 4.263-15.907 12.167 3.26-4.262 15.907z" color="#000"
      fill="#183641" />
</svg>
