<svg width="100mm" height="100mm" viewBox="0 0 100 100" xmlns:xlink="http://www.w3.org/1999/xlink"
  xmlns="http://www.w3.org/2000/svg">
  <defs>
    <linearGradient id="prefix__b">
      <stop offset=".462" stop-color="#ffd91a" />
      <stop offset="1" stop-color="#b78c16" />
    </linearGradient>
    <linearGradient id="prefix__a">
      <stop offset="0" stop-color="#f8f8f8" />
      <stop offset="1" stop-color="#999da8" />
    </linearGradient>
    <linearGradient xlink:href="#prefix__a" id="prefix__d" x1="5.41" y1="72.229" x2="94.59" y2="72.229"
      gradientUnits="userSpaceOnUse" gradientTransform="matrix(1.05915 0 0 1.05915 -2.957 -2.957)" />
    <linearGradient xlink:href="#prefix__b" id="prefix__c" x1="29.727" y1="19.207" x2="69.953" y2="73.505"
      gradientUnits="userSpaceOnUse" gradientTransform="matrix(1.05915 0 0 1.05915 -2.957 -2.957)" />
  </defs>
  <circle cx="50" cy="50" r="47.088" fill="url(#prefix__c)" stroke="#191919" stroke-width="3.175" stroke-linecap="round"
    stroke-linejoin="round" />
  <path d="M97.088 50a47.088 47.088 0 01-23.544 40.78 47.088 47.088 0 01-47.088 0A47.088 47.088 0 012.912 50H50z"
    fill="url(#prefix__d)" stroke="#191919" stroke-width="3.175" stroke-linecap="round" stroke-linejoin="round" />
  <path d="M3.013 49.906h93.974" fill="none" stroke="#191919" stroke-width="3.175" stroke-linejoin="round" />
  <path d="M37.516 37.954L27.064 26.75 50.019 9.902l22.917 16.81-10.452 11.205-12.465-10.963z" color="#000"
    fill="#d30f10" stroke="#670708" stroke-width="3.661" stroke-linecap="square" />
  <path d="M50.02 90.661L27.063 73.813l10.452-11.206L50.02 73.609l12.465-10.963L72.936 73.85z" color="#000"
    fill="#525252" stroke="#3f3f3f" stroke-width="3.661" stroke-linecap="square" />
  <circle cx="50" cy="50" r="7.529" fill="#191919" stroke="#191919" stroke-width="3.175" stroke-linejoin="round" />
</svg>
