<svg width="512" height="512" viewBox="0 0 135.467 135.467" xmlns:xlink="http://www.w3.org/1999/xlink"
   xmlns="http://www.w3.org/2000/svg">
   <defs>
      <linearGradient id="prefix__c">
         <stop offset="0" stop-color="#2ca4d0" />
         <stop offset="1" stop-color="#520fed" />
      </linearGradient>
      <linearGradient id="prefix__a">
         <stop offset=".462" stop-color="#ffea41" />
         <stop offset="1" stop-color="#ff9604" />
      </linearGradient>
      <linearGradient id="prefix__b">
         <stop offset="0" stop-color="#fff" />
         <stop offset="1" stop-color="#d2c3ff" />
      </linearGradient>
      <linearGradient xlink:href="#prefix__c" id="prefix__h" x1="44.124" y1="52.74" x2="55.158" y2="103.671"
         gradientUnits="userSpaceOnUse" gradientTransform="matrix(1.00281 0 0 1.00281 -.191 -.191)" />
      <linearGradient xlink:href="#prefix__d" id="prefix__g" x1="81.118" y1="31.247" x2="91.851" y2="82.953"
         gradientUnits="userSpaceOnUse" gradientTransform="matrix(1.00281 0 0 1.00281 -.191 -.191)" />
      <linearGradient id="prefix__d">
         <stop offset="0" stop-color="#ff4a2d" />
         <stop offset="1" stop-color="#cb0803" />
      </linearGradient>
      <radialGradient xlink:href="#prefix__b" id="prefix__f" cx="28.243" cy="41.644" fx="28.243" fy="41.644" r="48.675"
         gradientTransform="matrix(-.07517 .68337 -1.40631 -.15469 103.933 55.767)" gradientUnits="userSpaceOnUse" />
      <radialGradient xlink:href="#prefix__a" id="prefix__e" cx="29.561" cy="12.081" fx="29.561" fy="12.081" r="48.676"
         gradientUnits="userSpaceOnUse" gradientTransform="matrix(-.12475 .73416 -1.27364 -.21644 73.448 18.982)" />
   </defs>
   <path fill="#fff" d="M0 0h135.467v135.467H0z" />
   <path fill="url(#prefix__e)"
      d="M24.118 56.046c6.454-24.09 31.216-38.385 55.304-31.929 24.09 6.454 38.384 31.215 31.93 55.304-31.195-1.744-60.111-10-87.234-23.375z" />
   <path d="M111.351 79.42a45.156 45.156 0 11-87.233-23.375C50.394 69.203 79.229 77.46 111.35 79.421z"
      fill="url(#prefix__f)" />
   <path style="-inkscape-stroke:none"
      d="M24.564 54.498a47.704 47.704 0 00-.796 2.937c29.008 16.703 58.072 24.758 87.197 23.339a44.668 44.668 0 00.785-2.948c-31.37.279-60.35-7.788-87.186-23.328z"
      color="#000" fill="#1b3a47" />
   <path d="M59.57 44.717l38.61-26.815 19.966 42.512-18.267-4.896-7.726 28.829-22.05-5.908 7.724-28.828z" color="#000"
      fill="url(#prefix__g)" />
   <path d="M75.899 90.75L37.29 117.564l-19.97-42.51 18.27 4.895 7.726-28.829 22.05 5.908-7.724 28.828z" color="#000"
      fill="url(#prefix__h)" />
</svg>
